<?xml version="1.0" encoding="utf-8"?>
<!-- Generator: Adobe Illustrator 24.0.0, SVG Export Plug-In . SVG Version: 6.00 Build 0)  -->
<svg version="1.1" id="Capa_1" xmlns:svgjs="http://svgjs.com/svgjs"
	 xmlns="http://www.w3.org/2000/svg" xmlns:xlink="http://www.w3.org/1999/xlink" x="0px" y="0px" viewBox="0 0 351.4 512"
	 style="enable-background:new 0 0 351.4 512;" xml:space="preserve">
<style type="text/css">
	.st0{fill:#FFFFFF;}
	.st1{fill:none;}
</style>
<g>
	<path class="st0" d="M284.9,133c-3.5-5.8-10.4-8.5-16.9-6.7s-11,7.7-11,14.4c0,18.3-14.9,33.2-33.2,33.2s-33.2-14.9-33.2-33.2V15
		c0-6.1-3.7-11.5-9.3-13.9c-5.6-2.3-12.1-1-16.3,3.3c-1.7,1.7-41.7,41.9-82.2,102.7c-23.9,35.8-43,71.4-56.7,105.7
		C8.8,256.2,0,297.8,0,336.3C0,433.2,78.8,512,175.7,512s175.7-78.8,175.7-175.7C351.3,274.3,329,205.9,284.9,133z"/>
	<path class="st0" d="M284.9,133c-3.5-5.8-10.4-8.5-16.9-6.7s-11,7.7-11,14.4c0,18.3-14.9,33.2-33.2,33.2s-33.2-14.9-33.2-33.2V15
		c0-6.1-3.7-11.5-9.3-13.9c-1.9-0.8-3.8-1.1-5.7-1.1v512c96.9,0,175.7-78.8,175.7-175.7C351.3,274.3,329,205.9,284.9,133z"/>
	<path class="st1" d="M260.8,253.2h-64.3c-8.3,0-15,6.7-15,15c0,8.3,6.7,15,15,15h28.1l-64.1,64.1l-34.8-34.8
		c-5.9-5.9-15.4-5.9-21.2,0l-34.1,34.1c-5.9,5.9-5.9,15.4,0,21.2c5.9,5.9,15.4,5.9,21.2,0l23.5-23.5l34.8,34.8
		c2.8,2.8,6.6,4.4,10.6,4.4s7.8-1.6,10.6-4.4l74.7-74.7v28.1c0,8.3,6.7,15,15,15c8.3,0,15-6.7,15-15v-64.3
		C275.8,259.9,269,253.2,260.8,253.2z"/>
	<path class="st1" d="M260.8,253.2h-64.3c-8.3,0-15,6.7-15,15c0,8.3,6.7,15,15,15h28.1L175.7,332v42.4l70.1-70.1v28.1
		c0,8.3,6.7,15,15,15c8.3,0,15-6.7,15-15v-64.3C275.8,259.9,269,253.2,260.8,253.2z"/>
</g>
</svg>
